<?xml version="1.0" encoding="utf-8"?>
<!-- Generator: Adobe Illustrator 19.1.0, SVG Export Plug-In . SVG Version: 6.00 Build 0)  -->
<svg version="1.1" id="Layer_1" xmlns="http://www.w3.org/2000/svg" xmlns:xlink="http://www.w3.org/1999/xlink" x="0px" y="0px"
	 viewBox="0 0 481.1 110.8" style="enable-background:new 0 0 481.1 110.8;" xml:space="preserve">
<style type="text/css">
	.st0{fill:#00AB57;}
	.st1{fill:#009ADA;}
	.st2{fill:#0072BC;}
</style>
<g>
	<path class="st0" d="M163.9,88.1l-5.4-16.7h-29.2l-5.8,16.7h-12l31.9-80.5h2.8l29.6,80.5H163.9L163.9,88.1z M144.3,28.4l-12.2,35
		h23.3L144.3,28.4L144.3,28.4z"/>
	<path class="st0" d="M181.1,104l5.5-8.2c5.9,4,11.4,6,16.4,6c4.6,0,8.3-0.8,10.9-2.4c2.7-1.6,4-3.6,4-6c0-4.7-3.4-7-10.1-7
		c-1.2,0-3.2,0.3-6.2,0.9c-3,0.6-5.4,0.9-7,0.9c-8.1,0-12.2-3.1-12.2-9.3c0-1.9,1-3.6,2.9-5.2c1.9-1.6,4.3-2.7,7.1-3.4
		c-8.1-3.8-12.1-10.5-12.1-19.9c0-6.1,2.1-11.1,6.3-15.2c4.2-4,9.3-6.1,15.5-6.1c5.6,0,10,1.2,13.2,3.5l5.1-6.2l6.6,6.3l-6.1,4.7
		c2.6,3.4,3.9,7.9,3.9,13.4c0,5.9-1.8,10.8-5.4,14.7c-3.6,4-8.3,6.2-14.2,6.8l-8.4,0.9c-1,0.1-2.4,0.5-4,1.2
		c-1.7,0.7-2.5,1.5-2.5,2.6c0,1.5,1.7,2.2,5.2,2.2c1.5,0,3.9-0.3,7.2-0.8c3.3-0.6,5.7-0.8,7.2-0.8c5.6,0,10,1.4,13.2,4.1
		c3.2,2.7,4.7,6.5,4.7,11.4c0,5.3-2.4,9.7-7.1,13c-4.7,3.3-10.7,4.9-18,4.9c-3.7,0-7.6-0.7-11.7-2
		C186.9,107.5,183.7,105.9,181.1,104L181.1,104z M202.7,37.3c-3.5,0-6.4,1.3-8.6,3.8c-2.2,2.5-3.4,5.6-3.4,9.2c0,4,1.1,7.4,3.2,10
		c2.2,2.7,5.1,4,8.8,4c3.6,0,6.4-1.3,8.4-3.9c2-2.6,3-6,3-10.2c0-3.6-1.1-6.7-3.3-9.2C208.7,38.5,206,37.3,202.7,37.3L202.7,37.3z"
		/>
	<path class="st0" d="M269.4,40c-2.2-1.6-4.4-2.3-6.7-2.3c-3.6,0-6.8,1.7-9.5,5c-2.7,3.4-4,7.4-4,12.1v33.3h-10.2v-58h10.2v9.3
		c3.7-6.9,9.2-10.3,16.6-10.3c1.8,0,4.4,0.3,7.9,1L269.4,40L269.4,40z"/>
	<path class="st0" d="M285.8,88.1V38.7H278v-8.7h18v58H285.8L285.8,88.1z M291.4,8.1c1.7,0,3.2,0.6,4.5,1.9c1.2,1.2,1.9,2.7,1.9,4.5
		c0,1.8-0.6,3.3-1.9,4.5c-1.2,1.2-2.7,1.9-4.5,1.9c-1.7,0-3.2-0.6-4.4-1.9c-1.2-1.2-1.9-2.8-1.9-4.5c0-1.8,0.6-3.3,1.8-4.5
		C288.2,8.7,289.7,8.1,291.4,8.1L291.4,8.1z"/>
	<path class="st0" d="M347.5,88.1V54.3c0-6.2-0.9-10.5-2.8-13c-1.9-2.5-4.9-3.7-9.2-3.7c-2.3,0-4.7,0.7-7.3,2.1
		c-2.5,1.4-4.5,3.1-5.8,5.2v43.1h-10.2v-58h7l3.2,7.5c3.4-5.7,8.8-8.6,16.4-8.6c12.6,0,18.9,7.7,18.9,23.2v35.9H347.5L347.5,88.1z"
		/>
	<path class="st0" d="M368.3,58.9c0-9,2.4-16.2,7.2-21.7c4.8-5.5,11-8.3,18.8-8.3c8.2,0,14.6,2.6,19.1,7.9c4.5,5.3,6.8,12.6,6.8,22
		c0,9.4-2.3,16.7-6.9,22.1c-4.7,5.4-11,8.1-19,8.1c-8.2,0-14.5-2.7-19.1-8.2C370.6,75.5,368.3,68.2,368.3,58.9L368.3,58.9z
		 M379,58.9c0,14.6,5.1,21.8,15.3,21.8c4.7,0,8.5-2,11.2-5.9c2.7-3.9,4.1-9.2,4.1-16c0-14.4-5.1-21.6-15.2-21.6
		c-4.6,0-8.3,1.9-11.1,5.7C380.4,46.9,379,52.2,379,58.9L379,58.9z"/>
	<path class="st0" d="M427.2,84.6l3.6-9.8c5.7,3.8,10.2,5.6,13.7,5.6c6.3,0,9.4-2.7,9.4-8c0-3.8-3-7.1-9.1-9.9
		c-4.7-2.2-7.8-3.8-9.5-4.9c-1.6-1.1-3-2.4-4.2-3.8c-1.2-1.4-2.1-2.9-2.7-4.6c-0.6-1.6-0.9-3.3-0.9-5.2c0-4.8,1.7-8.5,5.1-11.2
		c3.4-2.7,7.9-4,13.4-4c4.2,0,9.5,1.3,15.8,4l-2.9,9.5c-4-3.3-8.1-4.9-12.2-4.9c-2.4,0-4.5,0.6-6.1,1.7c-1.7,1.2-2.5,2.6-2.5,4.4
		c0,3.7,2.1,6.5,6.3,8.5l7.3,3.4c4.5,2.1,7.7,4.4,9.8,7c2,2.6,3,5.9,3,9.9c0,5.2-1.8,9.3-5.4,12.2c-3.6,2.9-8.6,4.4-15,4.4
		C438.2,89.2,432.5,87.7,427.2,84.6L427.2,84.6z"/>
	<path class="st0" d="M32,44.2H11.6C5.2,44.2,0,49.5,0,56v20.6v11.8h11.6H32c6.4,0,11.7-5.3,11.7-11.8V56V44.2H32L32,44.2z
		 M39.6,55.3v12.3c0,3.9-3.1,7.1-7,7.1H20.5h-7v-7.1V55.3c0-3.9,3.1-7.1,7-7.1h12.2h7V55.3L39.6,55.3z"/>
	<path class="st1" d="M28.5,0H10.4H0v10.5v18.3c0,5.8,4.6,10.5,10.4,10.5h18.1h10.4V28.8V10.5C38.9,4.7,34.2,0,28.5,0L28.5,0z
		 M29.2,34c-2.6,0-4.7-2.1-4.7-4.7c0-2.6,2.1-4.7,4.7-4.7c2.6,0,4.7,2.1,4.7,4.7C33.8,31.9,31.7,34,29.2,34L29.2,34z"/>
	<path class="st2" d="M76.9,48.7H58.6H48.2v10.6v18.5c0,5.8,4.7,10.6,10.4,10.6h18.3h10.5V77.8V59.3C87.3,53.5,82.7,48.7,76.9,48.7
		L76.9,48.7z M58.4,63.6c-2.6,0-4.7-2.1-4.7-4.8c0-2.6,2.1-4.8,4.7-4.8c2.6,0,4.7,2.1,4.7,4.8C63.1,61.5,61,63.6,58.4,63.6
		L58.4,63.6z"/>
	<path class="st0" d="M55.3,44.2h20.4c6.4,0,11.7-5.3,11.7-11.8V11.8V0H75.7H55.3c-6.4,0-11.6,5.3-11.6,11.8v20.6v11.8H55.3
		L55.3,44.2z M47.7,33V20.7c0-3.9,3.1-7.1,7-7.1h12.2h7v7.1V33c0,3.9-3.1,7.1-7,7.1H54.7h-7V33L47.7,33z"/>
	<path class="st0" d="M471.1,29.2c0,2.8,2.2,5,5,5c2.7,0,5-2.2,5-5c0-2.8-2.3-5-5-5C473.3,24.2,471.1,26.4,471.1,29.2L471.1,29.2z
		 M472,29.2c0-2.4,1.7-4.3,4.1-4.3c2.3,0,4.1,1.9,4.1,4.3c0,2.4-1.7,4.3-4.1,4.3C473.8,33.4,472,31.6,472,29.2L472,29.2z
		 M474.2,32.1h1v-2.6h0.8l1.6,2.6h1l-1.7-2.6c0.9,0,1.5-0.7,1.5-1.6c0-1.1-0.7-1.7-2-1.7h-2.2V32.1L474.2,32.1z M475.1,27h1.1
		c0.6,0,1.2,0.2,1.2,0.9c0,0.8-0.5,0.9-1.2,0.9h-1.1V27L475.1,27z"/>
</g>
</svg>
